<?xml version="1.0" encoding="UTF-8"?>
<svg version="1.1" xmlns="http://www.w3.org/2000/svg" width="2816" height="1536">
<path d="M0 0 C929.28 0 1858.56 0 2816 0 C2816 506.88 2816 1013.76 2816 1536 C1886.72 1536 957.44 1536 0 1536 C0 1029.12 0 522.24 0 0 Z " fill="#F9FBFC" transform="translate(0,0)"/>
<path d="M0 0 C3.0292196 1.02040613 6.04709653 1.88428821 9.140625 2.68359375 C12.4910588 3.56358879 15.66717958 4.58700589 18.87109375 5.90234375 C22.66979779 7.44874061 26.47725544 8.96688837 30.296875 10.4609375 C72.16835127 27.02297669 111.593433 49.90802008 145.56494141 79.62890625 C146.90003354 80.75879868 148.26139219 81.85774843 149.63427734 82.94140625 C157.2845952 89.00875416 164.17857772 95.66461476 171.05371094 102.5859375 C172.95028439 104.49323707 174.85732805 106.38959434 176.765625 108.28515625 C183.74848831 115.260475 190.21087425 122.36720291 196.328125 130.12109375 C197.23932311 131.19958097 198.15725773 132.2724665 199.0859375 133.3359375 C215.35354827 152.04637431 229.22524191 172.49177336 241.91162109 193.75097656 C242.84392851 195.31092837 243.78162208 196.8676758 244.72509766 198.42089844 C263.44903889 229.330055 279.00369533 263.90519324 287.77734375 299.02490234 C288.36458689 301.25986229 289.02421115 303.4630863 289.703125 305.671875 C296.65121815 328.43563096 301.69633468 352.46276746 304.328125 376.12109375 C304.52897705 377.92126953 304.52897705 377.92126953 304.73388672 379.7578125 C310.76105736 435.26453378 306.62547557 490.31796981 293.89990234 544.62695312 C293.39631752 546.82363229 292.92520922 549.02284004 292.47265625 551.23046875 C278.61638487 616.02317438 243.95596267 679.9445765 201.328125 730.12109375 C200.43214924 731.19128702 199.53632476 732.26160696 198.640625 733.33203125 C186.83837247 747.34845172 174.42535795 761.27453654 160.50390625 773.22265625 C158.02160302 775.3885438 155.61757355 777.62986332 153.203125 779.87109375 C146.85313115 785.653344 140.14960092 790.90975421 133.328125 796.12109375 C132.68681641 796.61399902 132.04550781 797.1069043 131.38476562 797.61474609 C95.90110846 824.84048403 57.06724418 845.27104272 15.328125 861.12109375 C14.51102051 861.4370752 13.69391602 861.75305664 12.85205078 862.07861328 C-6.96234147 869.7238204 -27.70670947 874.14481629 -48.546875 877.93359375 C-49.3436969 878.08061737 -50.1405188 878.22764099 -50.96148682 878.37911987 C-71.65950888 882.16643683 -92.08112467 883.50503786 -113.109375 883.43359375 C-114.20038513 883.43210327 -115.29139526 883.43061279 -116.41546631 883.42907715 C-134.01960433 883.38599358 -151.22615732 882.61838574 -168.671875 880.12109375 C-169.67541016 879.98719238 -170.67894531 879.85329102 -171.71289062 879.71533203 C-208.24702053 874.76775206 -244.30403061 863.64553761 -277.671875 848.12109375 C-278.66993164 847.66508789 -279.66798828 847.20908203 -280.69628906 846.73925781 C-301.34872755 837.28572251 -321.19894673 826.37914497 -339.8515625 813.38818359 C-341.82612299 812.01372424 -343.811587 810.65578626 -345.796875 809.296875 C-355.20638318 802.80515994 -364.14348578 795.86924751 -372.92919922 788.55957031 C-374.4442416 787.30899176 -375.98016487 786.08379396 -377.51953125 784.86328125 C-394.10759428 771.70291752 -410.02307065 756.32904891 -423.671875 740.12109375 C-424.538125 739.13238281 -425.404375 738.14367188 -426.296875 737.125 C-461.98582384 696.31474041 -489.43453578 649.02747641 -508.45800781 598.34423828 C-509.56855306 595.39544134 -510.7057712 592.45866969 -511.8515625 589.5234375 C-517.66766176 574.39267651 -521.81090666 558.84412272 -525.671875 543.12109375 C-525.95305176 541.98994141 -526.23422852 540.85878906 -526.52392578 539.69335938 C-531.00516845 521.35681837 -533.49610133 502.87860987 -535.69140625 484.15625 C-535.77653473 483.43731064 -535.86166321 482.71837128 -535.94937134 481.97764587 C-537.25510708 470.51195349 -537.82970869 459.12858393 -537.83984375 447.58984375 C-537.84307338 446.22383594 -537.84643859 444.85782845 -537.84992981 443.49182129 C-537.85586686 440.64460451 -537.85777553 437.79741783 -537.85717773 434.95019531 C-537.8570968 432.07838601 -537.86399637 429.20673732 -537.87768555 426.33496094 C-537.95510318 409.84249569 -537.79188335 393.5055186 -535.671875 377.12109375 C-535.56692719 376.30668823 -535.46197937 375.49228271 -535.35385132 374.65319824 C-528.96951399 325.98514822 -515.45115839 278.58760473 -494.671875 234.12109375 C-494.18251465 233.07066895 -493.6931543 232.02024414 -493.18896484 230.93798828 C-477.0094889 196.59150685 -456.08179745 163.92206952 -431.26953125 135.15625 C-428.76354017 132.22819726 -426.33678819 129.24941219 -423.921875 126.24609375 C-420.9036952 122.53512891 -417.77824054 119.10553027 -414.33984375 115.78515625 C-412.58132551 114.03075632 -410.97296565 112.1967581 -409.359375 110.30859375 C-403.34216461 103.34697814 -396.77101534 96.92385237 -389.77734375 90.94921875 C-387.31460472 88.81088505 -384.93700157 86.59024776 -382.546875 84.37109375 C-376.1927744 78.59147348 -369.51388075 73.30918794 -362.671875 68.12109375 C-361.58011963 67.29254883 -361.58011963 67.29254883 -360.46630859 66.44726562 C-343.60734209 53.71143527 -326.13332043 42.3932594 -307.671875 32.12109375 C-306.8576709 31.66734375 -306.0434668 31.21359375 -305.20458984 30.74609375 C-223.81025876 -14.20515871 -125.63372292 -28.73777627 0 0 Z " fill="#000000" transform="translate(1523.671875,324.87890625)"/>
</svg>
